<svg width="52" height="52" viewBox="0 0 52 52" fill="none" xmlns="http://www.w3.org/2000/svg">
<rect x="2" y="2" width="48" height="48" rx="8" stroke="black" stroke-width="4"/>
<path d="M21.688 30.95H12.913L11.239 35H6.757L15.181 16.1H19.501L27.952 35H23.362L21.688 30.95ZM20.311 27.629L17.314 20.393L14.317 27.629H20.311ZM43.713 27.791C43.713 27.845 43.686 28.223 43.632 28.925H32.643C32.841 29.825 33.309 30.536 34.047 31.058C34.785 31.58 35.703 31.841 36.801 31.841C37.557 31.841 38.223 31.733 38.799 31.517C39.393 31.283 39.942 30.923 40.446 30.437L42.687 32.867C41.319 34.433 39.321 35.216 36.693 35.216C35.055 35.216 33.606 34.901 32.346 34.271C31.086 33.623 30.114 32.732 29.43 31.598C28.746 30.464 28.404 29.177 28.404 27.737C28.404 26.315 28.737 25.037 29.403 23.903C30.087 22.751 31.014 21.86 32.184 21.23C33.372 20.582 34.695 20.258 36.153 20.258C37.575 20.258 38.862 20.564 40.014 21.176C41.166 21.788 42.066 22.67 42.714 23.822C43.38 24.956 43.713 26.279 43.713 27.791ZM36.18 23.444C35.226 23.444 34.425 23.714 33.777 24.254C33.129 24.794 32.733 25.532 32.589 26.468H39.744C39.6 25.55 39.204 24.821 38.556 24.281C37.908 23.723 37.116 23.444 36.18 23.444Z" fill="black"/>
</svg>
