<svg width="53" height="52" viewBox="0 0 53 52" fill="none" xmlns="http://www.w3.org/2000/svg">
<rect x="2.99805" y="2" width="48" height="48" rx="8" stroke="black" stroke-width="4"/>
<path d="M26.6856 30.95H17.9106L16.2366 35H11.7546L20.1786 16.1H24.4986L32.9496 35H28.3596L26.6856 30.95ZM25.3086 27.629L22.3116 20.393L19.3146 27.629H25.3086ZM34.6134 20.474H38.8254V35H34.6134V20.474ZM36.7194 18.449C35.9454 18.449 35.3154 18.224 34.8294 17.774C34.3434 17.324 34.1004 16.766 34.1004 16.1C34.1004 15.434 34.3434 14.876 34.8294 14.426C35.3154 13.976 35.9454 13.751 36.7194 13.751C37.4934 13.751 38.1234 13.967 38.6094 14.399C39.0954 14.831 39.3384 15.371 39.3384 16.019C39.3384 16.721 39.0954 17.306 38.6094 17.774C38.1234 18.224 37.4934 18.449 36.7194 18.449Z" fill="black"/>
</svg>
