<svg width="52" height="52" viewBox="0 0 52 52" fill="none" xmlns="http://www.w3.org/2000/svg">
<rect x="1.99976" y="2" width="48" height="48" rx="8" stroke="black" stroke-width="4"/>
<path d="M20.422 16.1C22.096 16.1 23.545 16.379 24.769 16.937C26.011 17.495 26.965 18.287 27.631 19.313C28.297 20.339 28.63 21.554 28.63 22.958C28.63 24.344 28.297 25.559 27.631 26.603C26.965 27.629 26.011 28.421 24.769 28.979C23.545 29.519 22.096 29.789 20.422 29.789H16.615V35H12.241V16.1H20.422ZM20.179 26.225C21.493 26.225 22.492 25.946 23.176 25.388C23.86 24.812 24.202 24.002 24.202 22.958C24.202 21.896 23.86 21.086 23.176 20.528C22.492 19.952 21.493 19.664 20.179 19.664H16.615V26.225H20.179ZM35.4787 22.391C35.9827 21.689 36.6577 21.158 37.5037 20.798C38.3677 20.438 39.3577 20.258 40.4737 20.258V24.146C40.0057 24.11 39.6907 24.092 39.5287 24.092C38.3227 24.092 37.3777 24.434 36.6937 25.118C36.0097 25.784 35.6677 26.792 35.6677 28.142V35H31.4557V20.474H35.4787V22.391Z" fill="black"/>
</svg>
