<svg width="52" height="52" viewBox="0 0 52 52" fill="none" xmlns="http://www.w3.org/2000/svg">
<rect x="1.99951" y="2" width="48" height="48" rx="8" stroke="black" stroke-width="4"/>
<path d="M18.4215 16.1C20.0955 16.1 21.5445 16.379 22.7685 16.937C24.0105 17.495 24.9645 18.287 25.6305 19.313C26.2965 20.339 26.6295 21.554 26.6295 22.958C26.6295 24.344 26.2965 25.559 25.6305 26.603C24.9645 27.629 24.0105 28.421 22.7685 28.979C21.5445 29.519 20.0955 29.789 18.4215 29.789H14.6145V35H10.2405V16.1H18.4215ZM18.1785 26.225C19.4925 26.225 20.4915 25.946 21.1755 25.388C21.8595 24.812 22.2015 24.002 22.2015 22.958C22.2015 21.896 21.8595 21.086 21.1755 20.528C20.4915 19.952 19.4925 19.664 18.1785 19.664H14.6145V26.225H18.1785ZM34.6059 35.216C33.3999 35.216 32.2209 35.072 31.0689 34.784C29.9169 34.478 28.9989 34.1 28.3149 33.65L29.7189 30.626C30.3669 31.04 31.1499 31.382 32.0679 31.652C32.9859 31.904 33.8859 32.03 34.7679 32.03C36.5499 32.03 37.4409 31.589 37.4409 30.707C37.4409 30.293 37.1979 29.996 36.7119 29.816C36.2259 29.636 35.4789 29.483 34.4709 29.357C33.2829 29.177 32.3019 28.97 31.5279 28.736C30.7539 28.502 30.0789 28.088 29.5029 27.494C28.9449 26.9 28.6659 26.054 28.6659 24.956C28.6659 24.038 28.9269 23.228 29.4489 22.526C29.9889 21.806 30.7629 21.248 31.7709 20.852C32.7969 20.456 34.0029 20.258 35.3889 20.258C36.4149 20.258 37.4319 20.375 38.4399 20.609C39.4659 20.825 40.3119 21.131 40.9779 21.527L39.5739 24.524C38.2959 23.804 36.9009 23.444 35.3889 23.444C34.4889 23.444 33.8139 23.57 33.3639 23.822C32.9139 24.074 32.6889 24.398 32.6889 24.794C32.6889 25.244 32.9319 25.559 33.4179 25.739C33.9039 25.919 34.6779 26.09 35.7399 26.252C36.9279 26.45 37.8999 26.666 38.6559 26.9C39.4119 27.116 40.0689 27.521 40.6269 28.115C41.1849 28.709 41.4639 29.537 41.4639 30.599C41.4639 31.499 41.1939 32.3 40.6539 33.002C40.1139 33.704 39.3219 34.253 38.2779 34.649C37.2519 35.027 36.0279 35.216 34.6059 35.216Z" fill="black"/>
</svg>
